{"title":"Sex After Kids 2013 HDRip x264 AC3-MiLLENiUM","uid":10100665,"size":1245534551,"categoryP":"video","categoryS":"movies","magnet":"?xt=urn:btih:b4c967fc07a4d1bf96868399640202cb21978ab6&amp;dn=Sex+After+Kids+2013+HDRip+x264+AC3-MiLLENiUM&amp;tr=udp%3A%2F%2Ftracker.openbittorrent.com%3A80&amp;tr=udp%3A%2F%2Fopen.demonii.com%3A1337&amp;tr=udp%3A%2F%2Ftracker.coppersurfer.tk%3A6969&amp;tr=udp%3A%2F%2Fexodus.desync.com%3A6969","seeders":6,"leechers":1,"uploader":".BONE.","files":4,"time":1399393434,"description":"Plot: A disparate variety of couples from all walks of life strive to maintain active sex lives despite the notable distraction of having kids.\n\nGenre: Comedy\nIMDB Rating: 6.4/10 from 129 users\nDirected by: Jeremy Lalonde\nStarring: Paul Amos, Shannon Beckner, Katie Boland\n\nGeneral\n\nSource...............: WEB-DL.720p.CM [THANKS] &lt;a href=&quot;\nhttp://www.imdb.com/title/tt2301147/&quot; rel=&quot;nofollow&quot; target=&quot;_NEW&quot;&gt;\nhttp://www.imdb.com/title/tt2301147/&lt;/a&gt;\nSample Included......: yes\n\nGeneral\nComplete name : Sex After Kids 2013 HDRip x264 AC3-MiLLENiUM.mkv\nFormat : Matroska\nFormat version : Version 2\nFile size : 1.14 GiB\nDuration : 1h 46mn\nOverall bit rate mode : Variable\nOverall bit rate : 1 533 Kbps\nEncoded date : UTC 2014-05-03 20:38:05\nWriting application : mkvmerge v6.9.1 ('Blue Panther') 32bit built on Apr 18 2014 18:15:44\nWriting library : libebml v1.3.0 + libmatroska v1.4.1\n\nVideo\nID : 1\nFormat : AVC\nFormat/Info : Advanced Video Codec\nFormat profile : &lt;a class=&quot;__cf_email__&quot; href=&quot;/cdn-cgi/l/email-protection&quot; data-cfemail=&quot;3f775658577f730b110e&quot;&gt;[email&amp;#160;protected]&lt;/a&gt;&lt;script cf-hash='f9e31' type=&quot;text/javascript&quot;&gt;\n/* &lt;![CDATA[ */!function(){try{var t=&quot;currentScript&quot;in document?document.currentScript:function(){for(var t=document.getElementsByTagName(&quot;script&quot;),e=t.length;e--;)if(t[e].getAttribute(&quot;cf-hash&quot;))return t[e]}();if(t&amp;&amp;t.previousSibling){var e,r,n,i,c=t.previousSibling,a=c.getAttribute(&quot;data-cfemail&quot;);if(a){for(e=&quot;&quot;,r=parseInt(a.substr(0,2),16),n=2;a.length-n;n+=2)i=parseInt(a.substr(n,2),16)^r,e+=String.fromCharCode(i);e=document.createTextNode(e),c.parentNode.replaceChild(e,c)}}}catch(u){}}();/* ]]&gt; */&lt;/script&gt;\nFormat settings, CABAC : Yes\nFormat settings, ReFrames : 3 frames\nCodec ID : V_MPEG4/ISO/AVC\nDuration : 1h 46mn\nBit rate mode : Variable\nBit rate : 1 119 Kbps\nMaximum bit rate : 40.0 Mbps\nWidth : 720 pixels\nHeight : 400 pixels\nDisplay aspect ratio : 16:9\nFrame rate mode : Constant\nFrame rate : 23.976 fps\nColor space : YUV\nChroma subsampling : 4:2:0\nBit depth : 8 bits\nScan type : Progressive\nBits/(Pixel*Frame) : 0.162\nStream size : 852 MiB (73%)\nWriting library : x264 core 142 r2409 d6b4e63\n\nAudio\nID : 2\nFormat : AC-3\nFormat/Info : Audio Coding 3\nMode extension : CM (complete main)\nFormat settings, Endianness : Big\nCodec ID : A_AC3\nDuration : 1h 46mn\nBit rate mode : Constant\nBit rate : 384 Kbps\nChannel(s) : 6 channels\nChannel positions : Front: L C R, Side: L R, LFE\nSampling rate : 48.0 KHz\nBit depth : 16 bits\nCompression mode : Lossy\nStream size : 292 MiB (25%)\nLanguage : English\nDefault : Yes\nForced : No","torrent":{"xt":"urn:btih:b4c967fc07a4d1bf96868399640202cb21978ab6","amp;dn":"Sex+After+Kids+2013+HDRip+x264+AC3-MiLLENiUM","amp;tr":["udp%3A%2F%2Ftracker.openbittorrent.com%3A80","udp%3A%2F%2Fopen.demonii.com%3A1337","udp%3A%2F%2Ftracker.coppersurfer.tk%3A6969","udp%3A%2F%2Fexodus.desync.com%3A6969"],"infoHash":"b4c967fc07a4d1bf96868399640202cb21978ab6","infoHashBuffer":{"type":"Buffer","data":[180,201,103,252,7,164,209,191,150,134,131,153,100,2,2,203,33,151,138,182]},"announce":[],"urlList":[]}}